<svg xmlns="http://www.w3.org/2000/svg" width="284" height="80" viewBox="0 0 284 80" fill="none"><path d="M40.2676 15.6534C43.0665 15.1439 46.655 14.9248 48.6953 17.2942C50.3101 19.8165 48.4441 22.7719 47.2753 25.1006C41.3287 34.8432 33.3572 43.1235 25.8881 51.7044C24.3348 53.5643 22.5406 55.2356 21.2231 57.2789C22.2587 56.6369 23.1865 55.8522 24.0939 55.0471C36.5099 44.6114 48.8183 34.0483 61.2241 23.6076C63.4489 21.7426 65.766 19.9999 68.0421 18.2012C69.134 17.3655 70.267 16.433 71.6716 16.2088C72.6661 16.4789 73.7324 17.5948 73.1326 18.6547C72.4764 19.9693 71.446 21.0445 70.5233 22.1757C61.0857 33.1566 49.9666 42.7006 41.6158 54.5936C40.6161 56.0611 39.4986 57.4878 38.8988 59.1744C40.8109 58.2471 42.4463 56.8865 44.1277 55.6178C55.1955 46.9808 64.6075 36.4738 75.624 27.7757C80.694 23.8572 85.9639 20.0254 91.9822 17.6713C95.7501 16.1375 100.031 15.3732 104.014 16.5146C104.798 16.6776 105.367 17.2534 105.839 17.8649C103.891 17.6509 101.973 17.0649 100.005 17.233C95.3554 17.5235 91.0902 19.6432 87.1429 21.9464C78.9254 26.9197 72.0099 33.6611 65.0996 40.2343C57.2819 47.6178 49.982 55.6687 41.0109 61.7222C39.7549 62.5834 37.9709 63.577 36.5766 62.405C35.0489 61.391 35.2488 59.256 36.1511 57.8802C43.4869 46.1299 53.8421 36.7337 63.1977 26.6292C64.4076 25.2738 65.8429 24.0662 66.6837 22.4254C64.9202 23.3324 63.4335 24.6623 61.8546 25.8445C46.5115 37.8547 31.3733 50.1248 16.5992 62.8178C15.5483 63.684 14.5435 64.6165 13.4055 65.3706C12.8672 65.8037 12.1751 65.6305 11.847 65.0445C12.0213 64.5146 12.3597 64.0662 12.7185 63.6483C23.1712 51.7146 33.8801 39.949 43.1793 27.0776C44.7224 24.8407 46.2244 22.4865 46.9011 19.8318C47.1266 18.8534 46.0962 18.4254 45.3478 18.2063C42.3437 17.4725 39.2833 18.3184 36.3664 19.0318C26.7032 21.4216 17.5322 25.335 8.38163 29.1617C6.75657 29.8241 5.16228 30.5935 3.46033 31.042C4.60863 29.4929 6.60278 28.9834 8.24834 28.1171C18.6907 23.4496 28.9947 18.0738 40.2676 15.6534Z" fill="#EE2042"></path><path opacity="0.98" d="M105.613 35.7147C106.623 35.1542 107.633 36.6217 106.546 37.1975C105.557 37.5236 104.839 36.423 105.613 35.7147Z" fill="#2E2E2E"></path><path opacity="0.98" d="M113.528 35.8573C114.21 35.0675 115.733 36.4637 114.671 36.9885C113.938 37.6815 112.436 36.5707 113.528 35.8573Z" fill="#2E2E2E"></path><path opacity="0.98" d="M185.231 35.8626C185.923 35.0371 187.44 36.4894 186.41 36.9734C185.738 37.8091 184.318 36.525 185.231 35.8626Z" fill="#2E2E2E"></path><path opacity="0.98" d="M261.777 36.2142C262.326 35.9696 262.89 35.7658 263.469 35.5977C263.884 36.148 264.084 36.7696 263.433 37.2384C262.674 37.3047 262.249 36.6677 261.777 36.2142Z" fill="#2E2E2E"></path><path opacity="0.98" d="M82.1498 36.1782C82.4881 36.1782 83.1597 36.1782 83.498 36.1782C83.498 39.2355 83.498 42.2929 83.498 45.3502C83.1597 45.3502 82.4881 45.3502 82.1498 45.3502C82.1498 42.2929 82.1498 39.2355 82.1498 36.1782Z" fill="#2E2E2E"></path><path opacity="0.98" d="M138.324 37.1108C140.103 35.7096 143.251 35.6943 144.497 37.8038C142.846 37.7834 141.047 36.6318 139.498 37.6561C137.253 39.2306 137.637 43.7299 140.58 44.2955C142.005 44.7796 143.456 42.879 144.681 44.1682C143.194 45.0242 141.41 45.8038 139.688 45.1618C136.274 44.2599 135.633 39.1389 138.324 37.1108Z" fill="#2E2E2E"></path><path opacity="0.98" d="M208.771 36.1783C210.739 36.1783 212.713 36.158 214.687 36.2038C214.589 36.4331 214.394 36.8968 214.292 37.1312C212.908 37.2739 211.508 37.1974 210.124 37.1974C210.119 38.2115 210.119 39.2255 210.119 40.2395C211.385 40.2446 212.646 40.2548 213.912 40.3312C213.487 41.9924 211.354 41.0293 210.119 41.2943C210.119 42.3032 210.119 43.3172 210.119 44.3312C211.575 44.3312 213.031 44.3312 214.487 44.3159C214.487 44.5809 214.487 45.1057 214.487 45.3656C212.58 45.3452 210.673 45.3503 208.771 45.3503C208.771 42.293 208.771 39.2357 208.771 36.1783Z" fill="#2E2E2E"></path><path opacity="0.98" d="M179.207 39.6535C180.237 38.716 180.591 37.3096 181.586 36.3618C181.637 37.1465 181.673 37.9312 181.704 38.7211C183.206 38.7211 184.718 38.7261 186.225 38.7261C186.225 40.9325 186.225 43.144 186.225 45.3504C185.897 45.3504 185.246 45.3504 184.923 45.3504C184.918 43.4854 184.918 41.6204 184.928 39.7554C183.846 39.7503 182.77 39.7453 181.693 39.7402C181.652 41.2637 181.657 42.7924 181.816 44.316C182.365 44.3109 183.462 44.3007 184.01 44.2956C183.349 45.1211 182.375 45.4115 181.375 45.5542C179.92 43.9746 180.56 41.7223 180.453 39.786C180.14 39.7554 179.52 39.6892 179.207 39.6535Z" fill="#2E2E2E"></path><path opacity="0.98" d="M85.5178 38.4561C85.851 38.7057 86.5123 39.2 86.8455 39.4497C87.9938 38.6038 89.9418 38.2879 90.6851 39.8115C91.1926 41.6051 90.8748 43.5108 90.9414 45.3503C90.6287 45.3503 90.0136 45.3503 89.706 45.3503C89.7367 43.4293 89.8188 41.4777 89.3113 39.6026C88.4757 39.8217 87.4709 39.7758 86.8404 40.4484C86.5738 42.0688 86.7224 43.7197 86.7071 45.3503C86.3995 45.3503 85.7792 45.3503 85.4716 45.3503C85.4767 43.0522 85.4357 40.7541 85.5178 38.4561Z" fill="#2E2E2E"></path><path opacity="0.98" d="M93.4945 38.9402C94.5761 38.451 96.7651 38.6141 96.6472 40.1886C95.5758 40.0001 94.3198 39.3529 93.4329 40.3058C93.8225 41.9771 96.8215 41.3962 96.8676 43.2969C96.8471 45.7682 92.705 46.1861 92.054 43.8472C93.2125 43.9134 94.6274 44.7899 95.627 43.8319C95.909 42.4001 93.961 42.5071 93.1407 41.8803C91.7925 41.33 92.2488 39.3122 93.4945 38.9402Z" fill="#2E2E2E"></path><path opacity="0.98" d="M98.344 38.4355C98.8156 38.7668 99.2513 39.1387 99.6512 39.5566C100.507 39.0572 101.471 38.3642 102.507 38.8534C104.895 40.1222 104.619 44.5502 101.927 45.3094C101.061 45.5438 100.261 45.0598 99.4718 44.7948C99.4974 45.661 99.5179 46.5222 99.5333 47.3884C99.2257 47.3884 98.6003 47.3884 98.2876 47.3884C98.3081 44.4075 98.2261 41.4215 98.344 38.4355ZM99.4718 40.6062C99.5025 41.7069 99.5179 42.8126 99.5282 43.9133C100.369 44.1527 101.399 44.6674 102.153 43.9336C103.086 42.8279 103.127 40.7642 101.922 39.8317C100.979 39.4394 100.184 40.1018 99.4718 40.6062Z" fill="#2E2E2E"></path><path opacity="0.98" d="M105.536 38.7261C105.844 38.7261 106.459 38.7261 106.767 38.7261C106.767 40.9324 106.767 43.1439 106.767 45.3503C106.459 45.3503 105.844 45.3503 105.536 45.3503C105.531 43.1439 105.531 40.9324 105.536 38.7261Z" fill="#2E2E2E"></path><path opacity="0.98" d="M108.822 38.5225C109.273 38.7569 109.719 39.0014 110.17 39.2409C111.011 38.976 111.867 38.7518 112.734 38.5683C112.58 40.0817 110.524 39.5212 110.129 40.8358C109.904 42.3288 110.027 43.8422 110.022 45.3505C109.719 45.3505 109.109 45.3505 108.807 45.3556C108.807 43.0779 108.797 40.8002 108.822 38.5225Z" fill="#2E2E2E"></path><path opacity="0.98" d="M113.487 38.7362C113.79 38.7311 114.395 38.7209 114.702 38.7158C114.702 40.9324 114.702 43.1438 114.702 45.3553C114.4 45.3502 113.79 45.3502 113.487 45.3451C113.492 43.1438 113.492 40.9375 113.487 38.7362Z" fill="#2E2E2E"></path><path opacity="0.98" d="M116.783 38.4614C117.245 38.7824 117.701 39.1137 118.157 39.45C119.29 38.548 121.269 38.3289 121.976 39.8525C122.443 41.641 122.156 43.5213 122.212 45.3506C121.9 45.3506 121.284 45.3506 120.977 45.3506C121.008 43.4347 121.074 41.4882 120.597 39.613C119.772 39.8219 118.762 39.7557 118.137 40.4283C117.809 42.0436 118.009 43.7098 117.978 45.3506C117.67 45.3506 117.05 45.3506 116.742 45.3506C116.748 43.0525 116.712 40.7544 116.783 38.4614Z" fill="#2E2E2E"></path><path opacity="0.98" d="M124.509 39.1748C126.062 38.3289 127.969 38.7416 129.645 38.9404C128.989 39.9595 128.677 41.1467 128.087 42.1964C127.139 42.9302 125.842 42.7569 124.734 42.9811C125.801 44.5964 128.364 43.0677 129.369 44.8206C129.502 47.8423 124.514 48.362 123.304 45.9365C123.489 45.59 123.853 44.9021 124.032 44.5556C124.109 43.8219 124.181 43.083 124.283 42.3544C123.74 41.3506 123.325 39.9136 124.509 39.1748ZM124.437 40.7289C125.022 41.8142 127.472 42.4257 127.492 40.7442C127.405 39.1034 125.088 39.7607 124.437 40.7289ZM124.294 45.9569C125.565 46.2881 127.621 46.9556 128.282 45.3556C127.39 44.5658 126.103 44.9225 125.016 44.7849C124.837 45.0805 124.473 45.6665 124.294 45.9569Z" fill="#2E2E2E"></path><path opacity="0.98" d="M146.829 38.986C148.813 37.9618 151.427 39.5312 151.361 41.7784C151.725 44.0561 149.361 46.0484 147.167 45.2331C144.481 44.4382 144.297 40.0815 146.829 38.986ZM147.316 39.9236C146.096 40.6981 146.132 42.5376 146.767 43.6841C147.659 44.9223 149.925 44.3618 149.987 42.7669C150.546 41.1567 149.141 38.9452 147.316 39.9236Z" fill="#2E2E2E"></path><path opacity="0.98" d="M152.673 38.4512C153.006 38.7009 153.673 39.2104 154.006 39.4601C155.154 38.5735 157.128 38.3034 157.861 39.8423C158.333 41.6359 158.04 43.5212 158.092 45.3505C157.784 45.3505 157.169 45.3505 156.861 45.3505C156.825 43.7047 157.025 42.0231 156.682 40.4028C156.282 39.241 154.636 39.7403 153.996 40.4486C153.724 42.069 153.878 43.72 153.862 45.3505C153.555 45.3505 152.935 45.3505 152.627 45.3505C152.632 43.0524 152.586 40.7493 152.673 38.4512Z" fill="#2E2E2E"></path><path opacity="0.98" d="M159.85 38.4512C160.183 38.7059 160.85 39.2053 161.183 39.4601C162.336 38.5684 164.325 38.3034 165.043 39.8575C165.499 41.6461 165.217 43.5263 165.274 45.3505C164.961 45.3505 164.346 45.3505 164.038 45.3505C164.002 43.7047 164.202 42.0231 163.859 40.4028C163.469 39.2512 161.849 39.7251 161.203 40.4231C160.855 42.0384 161.075 43.7149 161.039 45.3505C160.732 45.3505 160.111 45.3505 159.804 45.3505C159.809 43.0524 159.768 40.7493 159.85 38.4512Z" fill="#2E2E2E"></path><path opacity="0.98" d="M166.781 43.2919C165.827 41.0601 167.724 38.1149 170.287 38.7518C171.984 39.0321 172.379 40.8563 172.553 42.283C170.923 42.2932 169.288 42.2881 167.657 42.334C168.073 43.0422 168.278 44.1021 169.236 44.2754C170.333 44.3926 171.394 43.9747 172.476 43.8321C171.364 46.1658 167.452 45.7582 166.781 43.2919ZM167.637 41.218C168.929 41.269 170.221 41.2792 171.512 41.2333C171.02 40.6168 170.646 39.5875 169.662 39.7301C168.662 39.6079 168.211 40.6219 167.637 41.218Z" fill="#2E2E2E"></path><path opacity="0.98" d="M175.388 45.2077C172.702 44.1377 172.876 39.3784 175.819 38.7873C176.89 38.5733 178.889 38.7364 178.633 40.2701C177.746 40.0867 176.828 39.5466 175.906 39.8523C174.578 40.6065 174.522 42.5733 175.301 43.7402C176.275 44.8816 177.854 43.8931 179.084 43.8523C178.366 45.1364 176.782 45.7377 175.388 45.2077Z" fill="#2E2E2E"></path><path opacity="0.98" d="M188.045 38.4458C188.378 38.7006 189.039 39.2101 189.373 39.4649C190.511 38.5885 192.474 38.2929 193.217 39.8165C193.72 41.6101 193.402 43.5108 193.469 45.3503C193.161 45.3503 192.541 45.3503 192.233 45.3503C192.197 43.7095 192.397 42.0331 192.054 40.4178C191.674 39.2407 190.019 39.7401 189.373 40.4433C189.091 42.0585 189.25 43.7146 189.234 45.3503C188.927 45.3503 188.306 45.3503 187.999 45.3503C188.004 43.0471 187.958 40.749 188.045 38.4458Z" fill="#2E2E2E"></path><path opacity="0.98" d="M195.76 39.1794C197.308 38.3234 199.22 38.7361 200.897 38.9399C200.241 39.959 199.933 41.1463 199.343 42.196C198.395 42.9297 197.098 42.7514 195.991 42.9807C197.057 44.596 199.62 43.0673 200.63 44.8253C200.753 47.5463 196.801 48.1425 195.109 46.6648C194.161 46.0584 194.919 45.2482 195.278 44.545C195.355 43.8164 195.442 43.0826 195.54 42.354C194.996 41.3552 194.576 39.9183 195.76 39.1794ZM195.688 40.7183C196.273 41.7985 198.687 42.4304 198.749 40.7692C198.718 39.1183 196.339 39.7399 195.688 40.7183ZM195.54 45.9616C196.847 46.4406 198.231 46.4151 199.548 45.9871C199.415 45.6915 199.149 45.1004 199.015 44.8049C198.103 44.8304 197.195 44.8355 196.288 44.8151C196.098 45.1055 195.724 45.6762 195.54 45.9616Z" fill="#2E2E2E"></path><path opacity="0.98" d="M215.707 38.502C216.091 38.7363 216.86 39.2051 217.239 39.4446C217.404 39.2663 217.732 38.9147 217.896 38.7414C218.265 38.7414 218.998 38.7364 219.367 38.7313C219.659 39.0778 219.946 39.4293 220.244 39.7758C221.248 38.7007 223.242 38.1606 224.191 39.5873C224.934 41.4013 224.509 43.4395 224.601 45.3504C224.273 45.3504 223.622 45.3504 223.294 45.3504C223.278 43.73 223.422 42.0943 223.201 40.4841C222.884 39.5211 221.356 39.4039 220.966 40.3771C220.515 41.9822 220.802 43.6892 220.756 45.3402C220.433 45.3453 219.787 45.3555 219.464 45.3555C219.439 43.6994 219.613 42.023 219.321 40.3822C218.988 39.2663 217.557 39.7198 217.034 40.4332C216.788 42.0586 216.927 43.7147 216.917 45.3504C216.609 45.3504 215.989 45.3504 215.681 45.3504C215.681 43.0676 215.661 40.7848 215.707 38.502Z" fill="#2E2E2E"></path><path opacity="0.98" d="M226.252 38.4712C226.703 38.7718 227.128 39.1132 227.518 39.5005C228.564 38.7973 230.076 38.2674 231.096 39.3272C232.46 40.8967 232.357 43.903 230.476 45.0495C229.502 45.6916 228.369 45.1464 227.379 44.8763C227.395 45.7069 227.41 46.5425 227.426 47.3782C227.123 47.3833 226.508 47.3884 226.2 47.3935C226.221 44.4228 226.149 41.447 226.252 38.4712ZM228.271 39.9336C226.892 40.6317 227.436 42.4865 227.492 43.7196C228.553 45.1362 230.86 44.0559 230.676 42.3642C231.091 40.9425 229.866 38.9909 228.271 39.9336Z" fill="#2E2E2E"></path><path opacity="0.98" d="M234.92 38.9096C237.125 37.9364 239.657 39.9542 239.262 42.2982C239.365 44.4842 236.909 46.0179 234.93 45.1721C232.29 44.2549 232.28 39.837 234.92 38.9096ZM234.341 42.7262C234.387 44.1071 235.817 44.3364 236.909 44.5249C238.273 43.1084 238.273 40.9529 236.894 39.5517C235.1 39.4803 233.828 40.9784 234.341 42.7262Z" fill="#2E2E2E"></path><path opacity="0.98" d="M239.816 38.5527C240.139 38.6597 240.78 38.8738 241.103 38.9808C241.831 40.5502 242.138 42.2623 242.594 43.9234C243.087 42.1706 243.65 40.4432 244.194 38.7107C244.491 38.7311 245.086 38.782 245.378 38.8075C245.845 40.4839 246.352 42.1553 246.829 43.8317C247.367 42.1553 247.875 40.4738 248.331 38.7769C248.659 38.7566 249.305 38.7209 249.633 38.7056C248.9 40.9222 248.156 43.1387 247.511 45.3808C247.188 45.3502 246.537 45.2788 246.214 45.2483C245.773 43.5566 245.229 41.8903 244.732 40.219C244.184 41.9311 243.763 43.6992 243.01 45.34C242.764 45.34 242.271 45.34 242.031 45.34C241.108 43.1387 240.528 40.8203 239.816 38.5527Z" fill="#2E2E2E"></path><path opacity="0.98" d="M250.571 40.209C251.335 38.7262 253.498 38.2014 254.852 39.2052C255.867 39.8829 255.851 41.223 256.113 42.2829C254.477 42.2931 252.847 42.288 251.222 42.3338C251.632 43.0421 251.832 44.1071 252.796 44.2701C253.888 44.4077 254.959 43.9695 256.036 43.8319C255.092 45.7886 252.058 45.8854 250.812 44.1937C249.992 43.0625 249.92 41.437 250.571 40.209ZM251.196 41.2179C252.483 41.2689 253.78 41.2791 255.072 41.2332C254.585 40.6268 254.231 39.6179 253.267 39.73C252.247 39.5823 251.776 40.6116 251.196 41.2179Z" fill="#2E2E2E"></path><path opacity="0.98" d="M257.487 38.5225C257.933 38.762 258.384 39.0065 258.84 39.2511C259.583 39.1492 261.075 37.9925 261.306 39.2511C260.537 39.8779 259.188 39.7505 258.794 40.8104C258.563 42.3084 258.691 43.8371 258.686 45.3454C258.384 45.3505 257.779 45.3505 257.471 45.3556C257.471 43.0779 257.461 40.8002 257.487 38.5225Z" fill="#2E2E2E"></path><path opacity="0.98" d="M262.403 38.7261C262.71 38.7261 263.325 38.7261 263.633 38.7261C263.633 40.9324 263.633 43.1439 263.633 45.3503C263.325 45.3503 262.71 45.3503 262.403 45.3503C262.398 43.1439 262.398 40.9324 262.403 38.7261Z" fill="#2E2E2E"></path><path opacity="0.98" d="M265.458 38.4512C265.786 38.7059 266.447 39.2104 266.781 39.4652C267.924 38.5837 269.887 38.2983 270.63 39.827C271.123 41.6206 270.815 43.5161 270.877 45.3505C270.564 45.3505 269.949 45.3505 269.641 45.3505C269.605 43.7047 269.805 42.0231 269.462 40.3977C269.057 39.2461 267.421 39.7403 266.781 40.4435C266.499 42.0639 266.658 43.7149 266.642 45.3505C266.335 45.3505 265.714 45.3505 265.407 45.3505C265.412 43.0524 265.366 40.7493 265.458 38.4512Z" fill="#2E2E2E"></path><path opacity="0.98" d="M273.163 39.1799C274.711 38.3187 276.628 38.757 278.31 38.9302C277.669 39.9646 277.336 41.1468 276.746 42.2015C275.793 42.92 274.506 42.7671 273.399 42.9812C274.465 44.5863 277.038 43.0729 278.038 44.8308C278.151 47.8423 273.168 48.3722 271.979 45.9315C272.153 45.585 272.502 44.8971 272.671 44.5506C272.758 43.8168 272.845 43.0831 272.948 42.3544C272.399 41.3557 271.984 39.9187 273.163 39.1799ZM273.101 40.7289C273.686 41.8092 276.121 42.4207 276.157 40.7544C276.095 39.1086 273.747 39.7506 273.101 40.7289ZM272.804 45.8092C274.178 46.5226 275.726 46.4512 277.136 45.8652C276.29 44.2907 273.793 44.4589 272.804 45.8092Z" fill="#2E2E2E"></path><path opacity="0.98" d="M130.717 43.7505C131.496 43.7149 131.963 44.3161 132.444 44.8206C131.881 45.055 131.306 45.2537 130.717 45.4219C130.245 44.897 130.368 44.2907 130.717 43.7505Z" fill="#2E2E2E"></path><path opacity="0.98" d="M202.117 43.9082C202.634 43.6177 204.08 44.0305 203.511 44.7591C203.178 46.1349 201.025 44.9426 202.117 43.9082Z" fill="#2E2E2E"></path><path opacity="0.98" d="M279.412 43.8065C280.396 43.5058 281.211 44.5606 280.396 45.3046C279.345 45.8753 278.54 44.4995 279.412 43.8065Z" fill="#2E2E2E"></path></svg>