<svg xmlns="http://www.w3.org/2000/svg" width="200" height="83" viewBox="0 0 200 83" fill="black"><path d="M178.28 11.6256C182.513 7.12493 187.333 3.12508 192.667 0C188.367 3.94642 184.02 7.94626 180.9 12.9411C175.7 20.6135 173.967 30.2826 175.353 39.3841C176.567 38.91 177.773 38.4158 178.953 37.8616C181 36.8066 182.973 35.5979 184.853 34.2624C187.107 32.4528 189.827 30.4362 190.213 27.3578C190.42 24.9139 187.96 23.7787 186.133 22.9039C189.147 23.1644 192.88 23.1176 194.9 25.7819C196.007 27.9922 194.253 30.109 192.92 31.7316C195.533 32.2191 198.833 32.593 200 35.4043V36.9468C197.753 41.6077 192.94 44.0984 188.56 46.3688C186.24 47.4572 183.88 48.4588 181.46 49.2935C180.3 49.6608 179.127 49.968 177.953 50.2885C178.353 53.2132 179.453 55.9711 179.947 58.8758C178.053 56.4118 176.64 53.6339 174.873 51.0831C171.267 52.2116 167.473 52.3385 163.807 53.1532C163.207 53.3201 162.52 53.2733 162.1 52.7725C166.333 52.432 170.453 51.3769 174.533 50.2818C173.327 47.6375 172.113 44.9999 171.193 42.2421C166.84 43.1369 162.46 44.1251 158 44.1385C162.287 43.4707 166.487 42.389 170.667 41.2605C170.013 37.7815 169.267 34.2691 169.513 30.71C169.707 23.4715 173.427 16.8007 178.28 11.6256ZM185.447 36.8199C183.567 37.708 181.667 38.5761 179.747 39.3841C179.82 40.3323 179.887 41.2738 179.947 42.222C179.553 41.374 179.24 40.4859 178.927 39.6111C177.867 40.0318 176.813 40.4391 175.74 40.8064C175.96 43.6243 176.847 46.322 177.353 49.0932C178.547 48.766 179.727 48.3921 180.887 47.9514C180.86 47.6242 180.8 46.9631 180.773 46.6292C181.007 46.8896 181.473 47.4038 181.707 47.6642C183.5 46.4222 185.973 45.8746 187.327 44.1719C190.307 43.0033 192.813 40.6061 194.44 37.8816C195.793 35.6914 194.3 33.1406 192.12 32.2992C190.113 34.1088 187.787 35.4911 185.447 36.8199Z" fill="black"></path><path d="M20.86 26.3696C23.3867 24.9807 24.6333 29.7618 21.9333 29.8887C19.88 30.4563 19.28 27.0975 20.86 26.3696Z" fill="black"></path><path d="M110.387 26.4898C111.447 26.3495 112.887 25.8621 113.52 27.0707C113.64 27.832 113.7 28.6867 113.333 29.3945C112.52 30.1891 111.34 29.7417 110.373 29.6282C110.3 28.5865 110.307 27.5381 110.387 26.4898Z" fill="black"></path><path d="M0 27.5982C5.1 27.5715 10.2 27.6316 15.3 27.5581C15.4667 29.3277 15.6133 31.1172 15.4667 32.8935C13.14 33.5679 14.1667 30.129 12.46 29.4946C10.3867 28.7734 8.12667 29.1807 5.97333 29.1073C5.96 32.0454 5.94667 34.9835 6.02 37.9216C8.34 37.9483 10.7 37.6479 13 38.0819C13.1333 38.3891 13.4 39.0101 13.5267 39.3239C11.02 39.4708 8.50667 39.4641 5.99333 39.4374C5.92667 42.1619 5.84667 44.8997 6.3 47.5974C7.5 47.9513 9.08667 47.8912 9.66667 49.24C6.44667 49.3803 3.22 49.3001 0 49.3202V48.0982C1.26 48.0114 3.01333 47.7443 2.83333 46.0415C2.92 40.9332 2.96667 35.8049 2.80667 30.6965C2.86 29.1273 1.20667 28.8602 0 28.8869V27.5982Z" fill="black"></path><path d="M99.5201 32.1656C100.26 31.0304 100.173 29.0539 101.94 29.0606C101.973 30.3827 101.987 31.6982 102 33.0203C103.28 33.0137 104.56 32.9936 105.847 32.9536C105.88 33.4143 105.947 34.3358 105.987 34.7966C104.66 34.7966 103.34 34.7899 102.02 34.7832C102.093 38.7163 101.7 42.7028 102.24 46.6091C102.633 48.9062 105.947 46.9029 106.407 48.7526C104.44 50.462 99.7201 49.9612 99.3201 46.756C98.9134 42.8163 99.2134 38.8365 99.1601 34.8834C98.3067 34.7899 97.4534 34.6964 96.6001 34.6029C96.8067 33.0671 98.8267 33.3342 99.5201 32.1656Z" fill="black"></path><path d="M17.8 33.0404C19.5933 33.0203 21.3867 33.0136 23.1867 32.9869C23.2733 36.8933 23.2 40.8063 23.2133 44.7127C23.14 45.7878 23.5067 46.7961 23.8867 47.7844C25 47.771 26.22 47.9313 26.3 49.3068C23.2933 49.3202 20.2867 49.3803 17.2867 49.2334C17.5 47.4839 20.4067 48.3519 20.3133 46.4422C20.4867 42.9899 20.4467 39.5176 20.3333 36.0586C20.4133 34.6496 18.8267 34.4093 17.7867 34.1622C17.7867 33.8817 17.8 33.3208 17.8 33.0404Z" fill="black"></path><path d="M32.98 35.431C34.8133 31.9854 40.8333 31.6315 42.4 35.4443C43.64 39.1303 42.5533 43.1168 43.1333 46.903C43.64 47.9313 45 48.125 45.86 48.786C44.1 49.7476 42.02 49.1934 40.1133 49.3202C40.02 45.3204 40.3 41.3139 39.9666 37.3274C39.78 34.0554 34.5666 33.7616 33.62 36.7131C32.6533 39.9383 33.1066 43.424 33.2 46.7427C33.1666 47.9513 34.6666 47.751 35.44 48.1116C35.5533 48.3854 35.78 48.9196 35.8933 49.1934C33.02 49.4004 30.1333 49.3536 27.26 49.2401C27.4733 47.9046 28.9133 47.8312 29.94 47.4839C30.4266 44.5859 30.16 41.6344 30.2333 38.7096C30.16 37.4476 30.4333 36.0453 29.7266 34.9101C28.9133 34.3559 27.4933 34.3893 27.3933 33.1072C29.1466 32.9736 30.9066 32.987 32.6666 33.1072C32.7733 33.8818 32.8733 34.6564 32.98 35.431Z" fill="black"></path><path d="M48.1533 38.5963C48.4467 36.0788 50.0733 33.4212 52.7333 32.9604C55.1267 32.5865 58.2867 32.5531 59.7933 34.8101C60.74 36.5529 59.04 37.9752 57.3533 37.7148C57.0667 36.6397 57.18 35.2107 56.06 34.5764C54.48 33.715 52.2 34.5163 51.6467 36.2791C50.6933 38.9502 50.6333 41.9684 51.3333 44.7062C51.7733 46.5292 53.5133 47.7712 55.3733 47.6577C57.2 47.8246 58.62 46.5225 60.0667 45.6411C59.9 46.5893 60.0933 47.8914 59.0933 48.459C56.6 50.135 52.9333 50.0749 50.5133 48.2787C47.78 45.9148 47.72 41.9016 48.1533 38.5963Z" fill="black"></path><path d="M63.76 36.526C65.3066 31.8851 72.8066 31.3576 75.06 35.6379C76.0733 37.3874 75.9733 39.4708 76.0133 41.4206C72.62 41.4874 69.2266 41.4006 65.8333 41.4273C66.04 43.4906 66.18 46.0748 68.2133 47.2167C70.62 48.4921 73.3266 47.2367 75.1266 45.5206C75.66 47.3302 74.4 48.8727 72.6666 49.24C69.84 50.1481 66.2133 49.6006 64.4533 46.9963C62.52 43.9113 62.5533 39.8781 63.76 36.526ZM67.3266 35.344C66.2266 36.526 66.1866 38.2287 65.8666 39.7245C68.2466 39.7646 70.6266 39.7579 73.0066 39.7379C72.7733 38.1486 72.8 36.319 71.6333 35.0703C70.4266 34.0085 68.3866 34.1221 67.3266 35.344Z" fill="black"></path><path d="M78.2067 33.0339C79.86 32.9471 81.5133 33.0205 83.1733 32.9938C83.3133 33.8352 83.4467 34.6765 83.5867 35.5246C84.76 34.2358 86.04 32.6466 87.98 32.7801C91.0267 32.3194 93.8333 34.7099 94.22 37.6948C94.68 40.8733 94.86 44.4257 93.1867 47.2971C91.0333 50.6358 85.5067 50.342 83.56 46.9164C83.7467 49.2135 83.62 51.5306 83.8 53.8344C83.9067 55.4303 86.1867 55.0831 86.6733 56.4787C83.78 56.8125 80.8667 56.6389 77.96 56.6456C77.86 55.3301 79.28 55.3568 80.14 54.8827C80.9667 54.1816 80.7733 52.9863 80.8467 52.0314C80.8133 46.9231 80.8667 41.8148 80.8267 36.7065C80.8733 35.7516 80.4667 34.563 79.3467 34.4962C78.62 34.3827 77.3133 33.942 78.2067 33.0339ZM86.7467 34.8101C85.1333 34.977 84.1467 36.5596 83.9667 38.0554C83.6 40.5661 83.4933 43.2572 84.4133 45.6611C85.1933 47.5241 87.54 48.1251 89.3133 47.4373C91.18 46.3689 91.56 43.9984 91.6133 42.0352C91.6333 39.8917 91.72 37.4677 90.3133 35.6915C89.4933 34.6098 87.9533 34.6632 86.7467 34.8101Z" fill="black"></path><path d="M116.847 33.0271C119.393 33.0471 121.947 32.9336 124.493 33.0605C125.087 34.7499 121.713 34.1823 122.373 36.0119C123.527 39.6311 124.72 43.2771 126.187 46.7828C127.393 42.7896 129.8 39.0435 129.96 34.8166C128.947 34.5362 127.64 34.3492 127.987 32.9536C130.14 33.0204 132.287 33.0337 134.44 33.0204C134.393 33.3008 134.3 33.8551 134.26 34.1289C133.473 34.4427 132.447 34.5829 132.193 35.5445C130.36 39.8114 128.893 44.232 127.18 48.5456C126.8 49.8878 125.093 49.1199 124.1 49.3536C122.393 44.7996 120.813 40.1987 119.08 35.6647C118.807 34.7499 117.807 34.5095 117.087 34.0888C117.027 33.8284 116.907 33.2942 116.847 33.0271Z" fill="black"></path><path d="M136.38 38.6296C136.74 36.2124 138.213 33.6882 140.713 33.0338C143 32.5264 145.82 32.6132 147.493 34.5096C149.153 36.3659 149.373 39.0236 149.16 41.4008C145.8 41.3207 142.44 41.5143 139.08 41.4342C139.32 43.6244 139.5 46.6493 142.007 47.4573C144.347 48.3321 146.667 47.0366 148.413 45.5475C148.413 46.5291 148.6 47.7445 147.627 48.3655C144.9 50.2285 140.707 50.155 138.327 47.7511C136.067 45.3205 135.933 41.7414 136.38 38.6296ZM140.093 36.0321C139.407 37.1672 139.3 38.5028 139.36 39.7982C141.673 39.7381 143.987 39.7848 146.293 39.6646C145.98 38.1422 146.073 36.3659 144.94 35.164C143.567 33.7684 140.887 34.2425 140.093 36.0321Z" fill="black"></path><path d="M107.753 33.0872C109.667 32.9804 111.587 33.0004 113.507 33.0605C113.5 36.9602 113.5 40.8532 113.493 44.7529C113.553 45.7077 113.433 46.7695 114 47.6108C114.7 47.8045 115.413 47.9581 116.14 48.0716C116.247 48.3587 116.46 48.9196 116.567 49.2068C113.533 49.3804 110.493 49.4071 107.473 49.1867C107.58 48.9063 107.8 48.3521 107.913 48.0716C108.867 47.8312 110.467 48.0716 110.433 46.6426C110.607 42.9833 110.64 39.284 110.42 35.6247C110.227 34.0755 107.78 34.8501 107.753 33.0872Z" fill="black"></path><path d="M179.18 24.8071C180.973 17.4551 186.093 11.4587 191.74 6.67761C189.08 9.38869 186.813 12.5271 185.46 16.0996C182.94 21.8022 183.347 28.3462 184.853 34.2625C182.973 35.598 181 36.8066 178.953 37.8617C178.34 33.5413 178.067 29.0807 179.18 24.8071Z" fill="#00B8DE"></path><path d="M179.747 39.384C181.667 38.576 183.567 37.7079 185.447 36.8198C186.04 39.2772 186.8 41.6944 187.327 44.1718C185.973 45.8746 183.5 46.4221 181.707 47.6641C181.473 47.4037 181.007 46.8895 180.773 46.6291C180.447 45.1734 180.133 43.7044 179.947 42.2219C179.887 41.2737 179.82 40.3322 179.747 39.384Z" fill="#00B8DE"></path><path d="M181.46 49.2935C183.88 48.4588 186.24 47.4572 188.56 46.3688L188.127 46.6292C189.44 52.3518 190.387 58.3616 189 64.1711C187.42 71.4963 182.6 77.5061 177.353 82.6077C179.473 78.2139 181.56 73.6932 182.247 68.812C183.507 62.3348 182.693 55.704 181.46 49.2935Z" fill="#00B8DE"></path></svg>